<svg width="157" height="53" viewBox="0 0 157 53" fill="none" xmlns="http://www.w3.org/2000/svg">
    <path d="M157 0H0V71H157V0Z" fill="#FFF"/>
    <path d="M130.212 16.6201H126.775V36.8012H130.212C136.979 36.8012 139.819 33.3766 139.819 26.7159C139.819 20.0552 136.99 16.6201 130.212 16.6201Z" fill="#EE0000"/>
    <path d="M62.9004 16.6201H57.4736V23.7416H62.9004C65.5719 23.7416 67.5415 22.6838 67.5415 20.1389C67.5415 17.594 65.5719 16.6201 62.9004 16.6201Z" fill="#EE0000"/>
    <path d="M0 0V53.422H157V0H0ZM68.8407 43.8393L60.7215 30.099H57.4109V43.8393H48.946V9.80258H63.8016C71.9208 9.80258 76.279 13.3634 76.279 19.6471C76.279 25.9308 71.8265 28.727 69.4484 29.324L78.5629 43.8498H68.8512L68.8407 43.8393ZM111.627 38.6867C111.627 38.6867 107.268 44.6248 97.0747 44.6248C86.8812 44.6248 80.7105 37.7023 80.7105 26.7162C80.7105 15.7302 87.3945 9.07996 97.2947 9.07996C107.195 9.07996 110.537 15.416 110.956 16.5052L103.79 19.867C103.245 18.6417 102.344 17.6153 101.202 16.9136C100.061 16.212 98.7405 15.8559 97.3995 15.9083C93.2404 15.9083 89.5212 18.7778 89.5212 26.7895C89.5212 34.8013 93.0413 37.6708 97.2947 37.6708C101.548 37.6708 103.287 35.7962 103.287 35.7962V30.1723H96.3728V23.5953H111.627V38.6867ZM131.333 43.8393H118.059V9.80258H131.333C142.029 9.80258 148.367 16.1387 148.367 26.821C148.367 37.5033 142.029 43.8393 131.333 43.8393Z" fill="#EE0000"/>
</svg>
